<?xml version="1.0" encoding="utf-8"?>
<!-- Generator: Adobe Illustrator 18.1.1, SVG Export Plug-In . SVG Version: 6.00 Build 0)  -->
<svg version="1.1" id="レイヤー_1" xmlns="http://www.w3.org/2000/svg" xmlns:xlink="http://www.w3.org/1999/xlink" x="0px"
	 y="0px" viewBox="0 0 90.4 194" enable-background="new 0 0 90.4 194" xml:space="preserve">
<path fill="none" stroke="#CCCCCC" stroke-width="3" stroke-linecap="round" stroke-miterlimit="10" d="M22.1,106.2
	c-3.9,2.6-7.2,6.4-8.7,10.8c-3.1,9,1.2,18.9,6.9,26.6s12.8,14.4,16.8,23s3.3,20.5-4.5,25.9"/>
<g>
	<path fill="#E46D65" d="M56.6,58.6c0.1,0.1,0.3,0.2,0.6,0.2c0.3,0,0.5-0.1,0.8-0.2c0.3-0.2,0.6-0.5,0.9-0.8
		c0.3-0.4,0.5-0.8,0.8-1.3c0.2-0.5,0.4-0.9,0.4-1.4c0.1-0.5,0.1-1.1,0.1-1.6c0-0.6-0.1-1.1-0.3-1.5c-0.1-0.5-0.3-0.9-0.5-1.2
		c-0.2-0.3-0.3-0.4-0.5-0.5c0,0,0,0-0.1,0c-0.2,0-0.5,0.1-0.7,0.3c-0.3,0.3-0.6,0.7-0.9,1.1c-0.3,0.5-0.5,1.1-0.7,1.7
		c-0.2,0.6-0.3,1.3-0.4,1.9c0,0.5-0.1,0.9-0.1,1.4c0,0.5,0.1,0.9,0.2,1.2C56.2,58.2,56.4,58.4,56.6,58.6z"/>
	<path fill="#E46D65" d="M47.3,57.4c0.3-0.1,0.5-0.3,0.9-0.5c0.4-0.2,0.8-0.5,1.3-0.8c0.4-0.3,0.9-0.7,1.2-1.1
		c0.4-0.4,0.7-0.9,1-1.4c0.3-0.5,0.4-1.1,0.5-1.7c0-0.1,0-0.3-0.1-0.5c0-0.2-0.1-0.4-0.2-0.5c-0.1-0.1-0.2-0.3-0.3-0.4
		c-0.1-0.1-0.2-0.1-0.4-0.1c-0.4,0-0.8,0.1-1.2,0.3c-0.4,0.2-0.7,0.5-1.1,0.9c-0.3,0.4-0.6,0.8-0.9,1.2c-0.2,0.4-0.4,0.8-0.6,1.2
		L47.3,57.4z"/>
	<path fill="#E46D65" d="M39.5,51.4c-0.2,0-0.3,0.1-0.4,0.2c-0.2,0.2-0.3,0.4-0.4,0.7c-0.1,0.3-0.2,0.6-0.2,1c0,0.1,0,0.2,0,0.3
		l2.9-1.6c-0.2-0.2-0.5-0.4-0.7-0.5c-0.2-0.1-0.5-0.1-0.8-0.1C39.7,51.4,39.6,51.4,39.5,51.4z"/>
	<path fill="#E46D65" d="M65.2,56.6c0.1,0.1,0.3,0.2,0.6,0.2c0.2,0,0.5-0.1,0.8-0.3c0.3-0.2,0.6-0.5,0.9-0.8
		c0.3-0.4,0.5-0.8,0.8-1.3c0.2-0.5,0.4-0.9,0.4-1.4c0.1-0.5,0.1-1.1,0.1-1.6c0-0.6-0.1-1.1-0.3-1.5c-0.1-0.5-0.3-0.9-0.5-1.2
		c-0.2-0.3-0.3-0.4-0.5-0.5c0,0,0,0-0.1,0c-0.2,0-0.5,0.1-0.7,0.3c-0.3,0.3-0.6,0.7-0.9,1.1c-0.3,0.5-0.5,1.1-0.7,1.7
		c-0.2,0.6-0.3,1.3-0.4,1.9c0,0.4-0.1,0.9-0.1,1.4c0,0.5,0.1,0.9,0.2,1.2C64.9,56.2,65,56.4,65.2,56.6z"/>
	<path fill="#E46D65" d="M79.1,15.1c-3.2-4.2-7-8-11.6-10.7C55.2-2.8,38.8-0.7,27,7.3C15.2,15.3,7.5,28.3,3.4,42
		c-3.5,11.8-4.7,24.6-1.7,36.5c2,8.1,6.1,16,12.8,20.9c2,1.4,4.1,2.6,6.4,3.4c-2.3,1.4-4.5,2.8-6.8,4.1c-0.3,0.2-0.5,0.3-0.6,0.6
		c-0.2,0.5,0.5,1,1,1.2c3.5,1.6,7.3,2.4,11.1,2.4c-0.9-2.2-1.2-4.7-0.9-7.1c4.5,1.2,9.3,1.4,14,1.1c20-1.6,38.7-14.7,46.9-33
		C93.8,53.8,91.2,31.1,79.1,15.1z M16,58.4c-0.1,0.2-0.2,0.4-0.4,0.6c-0.2,0.1-0.4,0.2-0.6,0.2l-0.2,0c-0.2,0-0.3,0-0.5-0.1
		c-0.2-0.1-0.4-0.3-0.5-0.7l-0.4-7.5L12,51.5l-0.2,0c-0.3,0-0.5-0.1-0.7-0.2c-0.2-0.1-0.4-0.4-0.4-0.6c0-0.2,0-0.4,0.1-0.6
		c0.1-0.1,0.1-0.3,0.2-0.4l0.1-0.1l2.2-1c-0.1-0.8-0.1-1.6-0.1-2.4c0-0.9,0.1-1.8,0.2-2.5c0.2-0.8,0.5-1.4,0.9-1.9
		c0.5-0.5,1.1-0.8,1.9-0.7c0.3,0,0.8,0.1,1.1,0.4c0.3,0.2,0.6,0.5,0.8,0.9c0.2,0.3,0.4,0.7,0.5,1.1c0.1,0.4,0.2,0.8,0.2,1.1
		c0,0.4-0.2,0.6-0.3,0.7c-0.1,0.1-0.3,0.2-0.5,0.3c-0.2,0-0.3,0-0.5,0c-0.2,0-0.4-0.1-0.5-0.2l-0.1-0.1l0-0.2c0-0.4-0.1-0.8-0.2-1
		c-0.1-0.2-0.2-0.4-0.3-0.6c-0.1-0.1-0.2-0.2-0.2-0.2c-0.1-0.1-0.2-0.1-0.2-0.1c-0.3,0-0.4,0.1-0.5,0.2c-0.2,0.2-0.3,0.6-0.3,1
		c-0.1,0.5-0.1,1.1-0.1,1.8c0,0.5,0,1.1,0.1,1.7l3.8-1.4l0.2,0.1c0.2,0.1,0.4,0.3,0.5,0.6c0.2,0.4-0.1,0.9-0.2,1.1l-0.1,0.1l-4,1.7
		L16,58.4L16,58.4z M27.3,60.8c-0.2,0.2-0.4,0.3-0.6,0.4c-0.1,0-0.2,0-0.3,0c-0.1,0-0.3,0-0.4-0.1c-0.2-0.1-0.4-0.3-0.4-0.5
		c-0.2-0.3-0.3-0.7-0.4-1.2c0-0.5-0.1-0.9-0.1-1.4c0-0.2,0-0.5,0-0.7c-0.3,0.6-0.6,1.1-0.9,1.5c-0.6,0.8-1.1,1.4-1.6,1.7
		c-0.5,0.4-1.1,0.6-1.6,0.5c-0.5,0-0.9-0.2-1.2-0.5c-0.3-0.3-0.5-0.6-0.7-1c-0.2-0.4-0.3-0.8-0.3-1.1c-0.1-0.5-0.1-1.1,0-1.9
		c0.1-0.7,0.2-1.5,0.5-2.2s0.5-1.5,0.8-2.2c0.3-0.7,0.7-1.4,1.2-1.9c0.5-0.6,1-1,1.5-1.3c0.6-0.3,1.2-0.4,1.8-0.2
		c0.3,0,0.5,0,0.7,0.1c0.3,0.1,0.5,0.2,0.7,0.4c0.2,0.2,0.3,0.5,0.4,0.8c0.1,0.3,0.1,0.6,0.1,1c0,1.3,0,2.3,0.1,3.2
		c0.1,0.9,0.2,1.6,0.3,2.3c0.1,0.7,0.3,1.3,0.4,1.8c0.1,0.6,0.2,1.2,0.2,1.8C27.6,60.3,27.5,60.6,27.3,60.8z M35.6,59.6
		c-0.2,0.6-0.6,1.2-1,1.7c-0.4,0.5-0.9,0.9-1.5,1.3c-0.6,0.3-1.3,0.5-2.1,0.5c-0.7,0-1.3-0.2-1.8-0.7c-0.4-0.4-0.8-0.9-1-1.5
		c-0.2-0.6-0.4-1.1-0.5-1.8c-0.1-0.6-0.1-1.1-0.1-1.5c0-0.6,0.1-1.1,0.1-1.7c0.1-0.6,0.1-1.1,0.2-1.6c0.1-0.5,0.3-1,0.4-1.5
		c0.2-0.5,0.4-0.9,0.7-1.3c0.3-0.4,0.7-0.7,1.1-0.9c0.4-0.2,0.9-0.3,1.5-0.3l0.1,0c0,0,0,0,0,0c0.5,0,1,0.2,1.2,0.7
		c0.2,0.4,0.4,0.8,0.5,1.3c0.1,0.5,0.2,0.9,0.3,1.4c0,0.5,0.1,0.8,0.1,1.1V55l-0.4,0.1c-0.3,0.1-0.7,0.1-1,0
		c-0.2-0.1-0.4-0.3-0.6-0.6c-0.1-0.2-0.2-0.4-0.3-0.7c-0.1-0.2-0.1-0.5-0.2-0.7c0-0.2-0.1-0.4-0.1-0.6c0-0.1,0-0.1-0.1-0.2
		c0,0,0,0,0,0c-0.2,0.1-0.3,0.3-0.5,0.6c-0.2,0.3-0.3,0.6-0.5,1.1c-0.1,0.4-0.3,0.9-0.4,1.3c-0.1,0.4-0.2,0.9-0.2,1.3
		c-0.1,0.4-0.1,0.7-0.1,1c0,0.4,0,0.8,0.1,1.2c0.1,0.4,0.2,0.8,0.3,1.2c0.1,0.3,0.3,0.6,0.5,0.9c0.2,0.2,0.3,0.3,0.6,0.4
		c0.4,0,0.7-0.1,1-0.2c0.3-0.1,0.5-0.3,0.7-0.5c0.2-0.2,0.3-0.4,0.4-0.7c0.1-0.3,0.2-0.6,0.3-0.9c0.1-0.3,0.1-0.6,0.2-0.9
		c0-0.3,0.1-0.6,0.2-0.7l0.1-0.3l0.3-0.1c0.5-0.1,0.9-0.1,1.2,0.1c0.5,0.3,0.5,0.6,0.5,0.8C35.9,58.3,35.8,58.9,35.6,59.6z
		 M53.2,55.4c-0.3,0.4-0.7,0.9-1.2,1.4c-0.5,0.5-1.1,1-1.9,1.5c-0.7,0.5-1.6,1-2.7,1.6c-0.5,0.1-0.7,0.2-0.9,0.2c-0.2,0-0.3,0-0.4,0
		l-0.1,0c-0.2,0-0.4,0-0.5-0.2l-0.1-0.1l0-0.3c-0.1-0.9-0.1-1.7-0.1-2.5c-0.1,0.4-0.1,0.8-0.3,1.2c-0.2,0.7-0.6,1.3-1,1.9
		c-0.4,0.6-1,1.1-1.6,1.4c-0.5,0.3-1,0.4-1.6,0.4c-0.2,0-0.4,0-0.5,0c-0.7,0-1.4-0.2-1.8-0.7c-0.4-0.4-0.8-0.9-1-1.5
		c-0.2-0.6-0.4-1.2-0.5-1.8L36.5,57c0,0-0.1,0-0.1,0c-0.3,0-0.5-0.1-0.8-0.2c-0.3-0.1-0.5-0.3-0.6-0.6c-0.1-0.2-0.2-0.6,0.4-1.1
		c0.1-0.1,0.3-0.2,0.5-0.3l0.3-0.1c0.1-0.6,0.1-1.2,0.2-1.8c0.1-0.7,0.3-1.3,0.5-1.8c0.3-0.6,0.7-1,1.2-1.4c0.5-0.3,1.2-0.5,2-0.4
		c0.3,0,0.6,0.1,1,0.2c0.4,0.1,0.7,0.3,1,0.5c0.3,0.2,0.6,0.5,0.9,0.8c0.3,0.3,0.4,0.7,0.5,1.1c0.1,0.2,0.1,0.6-0.3,1
		c-0.2,0.2-0.5,0.5-0.9,0.7c-0.4,0.2-0.8,0.5-1.2,0.8c-0.4,0.2-0.9,0.5-1.3,0.7l-1.1,0.6c-0.1,0.1-0.2,0.1-0.3,0.2
		c0.1,0.4,0.1,0.8,0.2,1.3c0.1,0.5,0.2,1,0.4,1.5c0.1,0.4,0.3,0.8,0.5,1c0.2,0.2,0.3,0.3,0.6,0.3c0.1,0,0.2,0,0.3,0
		c0.4,0,0.7-0.1,1-0.2c0.3-0.2,0.6-0.4,0.9-0.7c0.2-0.3,0.4-0.6,0.6-1c0.2-0.4,0.3-0.7,0.3-1.1c0.1-0.3,0.1-0.6,0.2-0.9
		c0.1-0.4,0.1-0.6,0.2-0.7l0.1-0.1c0.3-0.1,0.6-0.2,0.9,0c0.2,0.1,0.4,0.2,0.5,0.6c0-1,0-2-0.1-3.1l0-4.2c0-1.5,0-3.4-0.1-5.5l0-0.6
		h0.5c0.1,0,0.3,0.1,0.4,0.1c0.2,0,0.4,0,0.5,0c0.2,0,0.4,0.2,0.6,0.3c0.2,0.2,0.2,0.4,0.2,0.7c0,0.5,0,1.1,0,1.6c0,0.5,0,1.1,0,1.7
		c0,0.6,0,1.3,0,2c0,0.4,0,0.9,0,1.3c0.2-0.2,0.4-0.4,0.6-0.6c0.5-0.4,0.9-0.8,1.3-1c0.4-0.2,0.9-0.4,1.3-0.4c0.4,0,0.8-0.1,1.2,0
		c0.4,0,0.9,0.1,1.3,0.3c0.3,0.2,0.6,0.5,0.8,0.9c0.2,0.3,0.3,0.7,0.4,1.2c0.1,0.4,0.1,0.8,0.1,1.3c0,0.3,0,0.6-0.1,1
		c0,0.4-0.1,0.8-0.2,1.2C53.7,54.5,53.5,55,53.2,55.4z M61.9,55.2c-0.1,0.8-0.3,1.6-0.5,2.3c-0.3,0.7-0.7,1.3-1.1,1.9
		c-0.5,0.5-1,1.2-1.5,1.5c-0.6,0.3-1.1,0.7-1.7,0.7h-0.1c-0.7-1-1.2-0.6-1.6-1c-0.4-0.4-0.7-1-0.9-1.6c-0.2-0.5-0.3-1.2-0.4-1.9
		c-0.1-0.6-0.1-1.3,0-1.9c0-0.9,0.2-1.9,0.5-2.7c0.3-0.9,0.7-1.6,1.2-2.3c0.5-0.7,1-1.2,1.6-1.5c0.6-0.4,1.3-0.6,1.9-0.5
		c0.7,0.1,1.2,0.4,1.6,0.9c0.4,0.5,0.7,1.1,0.9,1.7c0.2,0.7,0.3,1.4,0.4,2.2C62,53.7,62,54.5,61.9,55.2z M70.6,53.2
		c-0.1,0.8-0.3,1.6-0.5,2.3c-0.3,0.7-0.7,1.3-1.1,1.9c-0.4,0.5-1,1.2-1.5,1.5c-0.6,0.3-1.1,0.7-1.7,0.7h-0.1c-0.7-1-1.2-0.6-1.6-1
		c-0.4-0.4-0.7-1-0.9-1.6c-0.2-0.5-0.3-1.2-0.4-1.9c-0.1-0.6-0.1-1.3,0-1.9c0-0.9,0.2-1.9,0.5-2.7s0.7-1.6,1.2-2.3
		c0.5-0.7,1-1.2,1.6-1.5c0.6-0.4,1.3-0.6,1.9-0.5c0.7,0.1,1.2,0.4,1.6,0.9c0.4,0.5,0.7,1.1,0.9,1.7c0.2,0.7,0.3,1.4,0.4,2.2
		C70.6,51.7,70.6,52.5,70.6,53.2z M79.9,56.4c-0.2,0.2-0.5,0.3-0.9,0.4l-0.1,0L73.6,54l0,2.5c-0.1,0.3-0.3,0.5-0.5,0.7
		c-0.2,0.1-0.3,0.2-0.5,0.2l-0.2,0c-0.2,0-0.4-0.1-0.5-0.2l-0.4-0.4l-0.1-16.6l0.1-0.1c0.4-0.4,0.7-0.5,1-0.5l0.2,0
		c0.3,0.1,0.6,0.4,0.7,0.9l0,0.1l0,9.6l4.3-5.6h0.3c0.3,0,0.4-0.2,0.6-0.1c0.2,0.1,0.3,0.1,0.3,0.7v0.2L74.3,52l5.4,2.6l0.1,0.1
		c0.1,0.1,0.1,0.2,0.2,0.4c0.1,0.2,0.1,0.4,0.1,0.6C80.1,55.9,80.1,56.2,79.9,56.4z"/>
	<path fill="#E46D65" d="M24,54.9c0.2-0.5,0.4-0.9,0.5-1.2l-0.1-3c-0.1-0.1-0.2-0.2-0.4-0.2c0,0,0,0-0.1,0c-0.3,0-0.5,0.2-0.8,0.5
		c-0.3,0.3-0.6,0.8-0.9,1.4c-0.3,0.6-0.6,1.2-0.8,1.9c-0.2,0.7-0.4,1.4-0.5,2c-0.1,0.6-0.1,1.2-0.1,1.7c0.2,0.6,0.4,0.7,0.4,0.7
		c0.2,0,0.3,0,0.4-0.1c0.2-0.2,0.5-0.4,0.8-0.8c0.3-0.4,0.6-0.9,0.9-1.4C23.6,55.9,23.8,55.4,24,54.9z"/>
</g>
</svg>
