<?xml version="1.0" encoding="utf-8"?>
<!-- Generator: Adobe Illustrator 18.1.1, SVG Export Plug-In . SVG Version: 6.00 Build 0)  -->
<svg version="1.1" id="レイヤー_1" xmlns="http://www.w3.org/2000/svg" xmlns:xlink="http://www.w3.org/1999/xlink" x="0px"
	 y="0px" viewBox="0 0 36 36" enable-background="new 0 0 36 36" xml:space="preserve">
<path d="M18,0.7C8.4,0.7,0.6,8.5,0.6,18.1S8.4,35.5,18,35.5c9.6,0,17.4-7.8,17.4-17.4S27.6,0.7,18,0.7z M27.7,18.1
	c-2.3,1.3-4.3,3.9-5.3,7.1c-0.1,0.3-0.4,0.5-0.7,0.5c-0.1,0-0.1,0-0.2,0c-0.4-0.1-0.6-1-0.5-1.3c0.8-2.6,2.2-4.8,3.8-6.8H7.3
	c-0.4,0-0.7-0.1-0.7-0.5s0.3-0.5,0.7-0.5h18.4l-6.6-5.3c-0.3-0.3-0.3-0.6-0.1-0.9s0.7-0.3,1,0l7.9,6.6c0.2,0.2,0.3,0.4,0.3,0.6
	S27.9,18,27.7,18.1z"/>
</svg>
