<?xml version="1.0" encoding="utf-8"?>
<!-- Generator: Adobe Illustrator 18.1.1, SVG Export Plug-In . SVG Version: 6.00 Build 0)  -->
<svg version="1.1" id="レイヤー_5" xmlns="http://www.w3.org/2000/svg" xmlns:xlink="http://www.w3.org/1999/xlink" x="0px"
	 y="0px" viewBox="0 0 63.8 63.2" enable-background="new 0 0 63.8 63.2" xml:space="preserve">
<path fill="#3B5999" d="M32.1,3C16,3,3,16,3,32.1c0,16.1,13,29.1,29.1,29.1c16.1,0,29.1-13,29.1-29.1C61.2,16,48.2,3,32.1,3z
	 M40.9,23.1l-3,0c-2.3,0-2.8,1.1-2.8,2.7v3.6h5.6L40,35h-4.8v14.4h-5.8V35h-4.8v-5.6h4.8v-4.1c0-4.8,2.9-7.4,7.2-7.4
	c2.1,0,3.8,0.2,4.3,0.2V23.1z"/>
</svg>
