<?xml version="1.0" encoding="utf-8"?>
<!-- Generator: Adobe Illustrator 18.1.1, SVG Export Plug-In . SVG Version: 6.00 Build 0)  -->
<svg version="1.1" id="レイヤー_1" xmlns="http://www.w3.org/2000/svg" xmlns:xlink="http://www.w3.org/1999/xlink" x="0px"
	 y="0px" viewBox="579.7 2.7 101 94.7" enable-background="new 579.7 2.7 101 94.7" xml:space="preserve">
<path fill="#73CAF2" d="M625.5,27.8l4.1,0c0.3-0.5,0.6-1,1-1.4c1.2-1.2,2.8-1.8,4.5-1.8c1.7,0,3.3,0.7,4.5,1.8
	c2.5,2.5,2.5,6.4,0,8.9c-0.4,0.4-0.9,0.7-1.4,1l0,4.1c0,1.8,1.4,2.2,2.2,0.5l13.8-27c1-2-0.3-3.3-2.3-2.3l-27,13.8
	C623.4,26.5,623.7,27.8,625.5,27.8z"/>
<path fill="#E46D65" d="M637.7,28.3c-1.4-1.4-3.8-1.4-5.2,0c-1.4,1.4-1.4,3.8,0,5.2s3.8,1.4,5.2,0S639.1,29.7,637.7,28.3z"/>
<path fill="#E46D65" d="M634.5,44.1l-4.1,0c-0.3,0.5-0.6,1-1,1.4c-1.2,1.2-2.8,1.8-4.5,1.8c-1.7,0-3.3-0.7-4.5-1.8
	c-2.5-2.5-2.5-6.4,0-8.9c0.4-0.4,0.9-0.7,1.4-1l0-4.1c0-1.8-1.4-2.2-2.2-0.5l-13.8,27c-1,2,0.3,3.3,2.3,2.3l27-13.8
	C636.7,45.5,636.4,44.1,634.5,44.1z"/>
<path fill="#73CAF2" d="M622.4,43.6c1.4,1.4,3.8,1.4,5.2,0s1.4-3.8,0-5.2c-1.4-1.4-3.8-1.4-5.2,0C620.9,39.9,620.9,42.2,622.4,43.6z
	"/>
<path fill="#333333" d="M602,38.3c0.4,4.6,1.9,9,4.4,12.9l3.1-6c-0.7-1.5-1.2-3-1.5-4.7c-0.3-1.5-0.5-3-0.5-4.5c0-1.5,0.2-3,0.5-4.5
	c0.6-2.8,1.7-5.5,3.3-7.9c1.7-2.5,3.8-4.7,6.4-6.4c2.4-1.6,5.1-2.7,7.9-3.3c1.5-0.3,3-0.5,4.5-0.5c1.5,0,3,0.2,4.5,0.5
	c1.6,0.3,3.2,0.8,4.7,1.5l6-3.1c-3.9-2.5-8.3-4-12.9-4.4c-0.1,0-0.2-0.1-0.3-0.2L631.5,6c-0.4-1.3-2.5-1.3-2.9,0L628,7.8
	c0,0.1-0.1,0.2-0.3,0.2c-5.9,0.5-11.3,2.8-15.8,6.6c-0.1,0.1-0.2,0.1-0.3,0l-1.7-0.9c-1.2-0.6-2.7,0.9-2.1,2.1l0.9,1.7
	c0.1,0.1,0,0.2,0,0.3c-3.8,4.5-6.1,10-6.6,15.8c0,0.1-0.1,0.2-0.2,0.3l-1.8,0.6c-1.3,0.4-1.3,2.5,0,2.9l1.8,0.6
	C601.9,38,602,38.1,602,38.3z"/>
<path fill="#333333" d="M660,34.5l-1.8-0.6c-0.1,0-0.2-0.1-0.2-0.3c-0.4-4.6-1.9-9-4.4-12.9l-3.1,6c0.7,1.5,1.2,3,1.5,4.7
	c0.3,1.5,0.5,3,0.5,4.5c0,1.5-0.2,3-0.5,4.5c-0.6,2.8-1.7,5.5-3.3,7.9c-1.7,2.5-3.8,4.7-6.4,6.4c-2.4,1.6-5.1,2.7-7.9,3.3
	c-1.5,0.3-3,0.5-4.5,0.5c-1.5,0-3-0.2-4.5-0.5c-1.6-0.3-3.2-0.8-4.7-1.5l-6,3.1c3.9,2.5,8.3,4,12.9,4.4c0.1,0,0.2,0.1,0.3,0.2
	l0.6,1.8c0.4,1.3,2.5,1.3,2.9,0l0.6-1.8c0-0.1,0.1-0.2,0.3-0.2c5.9-0.5,11.3-2.8,15.8-6.6c0.1-0.1,0.2-0.1,0.3,0l1.7,0.9
	c1.2,0.6,2.7-0.9,2.1-2.1l-0.9-1.7c-0.1-0.1,0-0.2,0-0.3c3.8-4.5,6.1-10,6.6-15.8c0-0.1,0.1-0.2,0.2-0.3l1.8-0.6
	C661.3,37,661.3,34.9,660,34.5z"/>
<g>
	<path fill="#333333" d="M604.9,79.4l-0.3,2.4l-0.2,1.3l-0.2,1.3l0,0.2l0,0.3l0,0.3l0,0.2l-0.2,1.3c-0.1,0.7-0.8,1.3-1.5,1.3h-0.1
		H601h-0.1h-0.3h-0.1c-0.7,0-1.2-0.6-1.1-1.3l0.2-1.3l0-0.2l0-0.3l0-0.3l0-0.2l0.2-1.3l0.2-1.3l0.4-2.7h-0.1h-4l-0.4,2.7l-0.2,1.3
		l-0.2,1.3l-0.1,0.6l-0.1,0.6l-0.2,1.3c-0.1,0.5,0,0.9,0,1.3c0.2,1.1,1,2,2.1,2.4c0.4,0.1,0.8,0.2,1.3,0.2h0.1h3.2h0.1
		c0.5,0,0.9-0.1,1.4-0.2c1.2-0.4,2.2-1.3,2.8-2.4c0.2-0.4,0.4-0.9,0.4-1.3l0.2-1.3l0.1-0.6l0.1-0.6l0.2-1.3l0.6-4H605L604.9,79.4z"
		/>
	<g>
		<g>
			<path fill="#333333" d="M648.6,77.5c-0.1,0.9,0.7,1.6,1.8,1.6c1.1,0,2.1-0.7,2.3-1.6c0.1-0.9-0.7-1.6-1.8-1.6
				C649.7,75.9,648.7,76.6,648.6,77.5z"/>
		</g>
		<path fill="#333333" d="M650.5,81.9h-1c-0.9,0-1.6,0.7-1.8,1.6l-0.8,6l-0.2,1.6h1.6h1h1.6l0.2-1.6l0.8-6
			C652,82.5,651.4,81.9,650.5,81.9z"/>
	</g>
	<path fill="#333333" d="M677.9,81.9c-0.2-1.1-1-2-2.1-2.4c-0.4-0.1-0.8-0.2-1.3-0.2h-3.3h-0.1c-0.5,0-0.9,0.1-1.4,0.2
		c-1.2,0.4-2.2,1.3-2.8,2.4c-0.2,0.4-0.4,0.9-0.4,1.3l-0.2,1.3l-0.1,0.6l-0.1,0.6L666,87c-0.1,0.5,0,0.9,0,1.3c0.2,1.1,1,2,2.1,2.4
		c0.4,0.1,0.8,0.2,1.3,0.2h0.1h2h0.7h0.7h1.3l-0.1,0.5c-0.1,0.7-0.8,1.3-1.5,1.3h-1.7l-0.4,2.7h1.7c0.5,0,0.9-0.1,1.4-0.2
		c1.2-0.4,2.2-1.3,2.8-2.4c0.2-0.4,0.4-0.9,0.4-1.3l0.1-0.5l0.1-0.8l0.3-1.9l0.2-1.3l0.2-1.3l0.1-0.6l0.1-0.4l0-0.1l0.2-1.3
		C678,82.7,678,82.3,677.9,81.9z M675.1,84.5l0,0.1l0,0.1l0,0.3l0,0.3l0,0.2l-0.2,1.3l-0.2,1.3h-1.3h-0.7h-0.7h-0.6h-0.1
		c-0.7,0-1.2-0.6-1.1-1.3l0.2-1.3l0-0.2l0-0.3l0-0.3l0-0.2l0.2-1.3c0.1-0.7,0.8-1.3,1.5-1.3h0.1h1.9c0.7,0,1.2,0.6,1.1,1.3
		L675.1,84.5z"/>
	<path fill="#333333" d="M618,79.2h-1.3h-3.3h-0.1c-0.5,0-0.9,0.1-1.4,0.2c-1.2,0.4-2.2,1.3-2.8,2.4c-0.2,0.4-0.4,0.9-0.4,1.3
		l-0.2,1.3l-0.1,0.6l-0.1,0.6l-0.2,1.3c-0.1,0.5,0,0.9,0,1.3c0.2,1.1,1,2,2.1,2.4c0.4,0.1,0.8,0.2,1.3,0.2h0.1h3.3
		c0.5,0,0.9-0.1,1.4-0.2c1.2-0.4,2.2-1.3,2.8-2.4c0.2-0.4,0.4-0.9,0.4-1.3l0.2-1.3l0.1-0.6l0.1-0.6l0.2-1.3l0.2-1.3l0.4-2.7l0.5-3.3
		h-2.7L618,79.2z M617.4,83.2l-0.2,1.3l0,0.2l0,0.3l0,0.3l0,0.2l-0.2,1.3c-0.1,0.7-0.8,1.3-1.5,1.3h-1.9h-0.1
		c-0.7,0-1.2-0.6-1.1-1.3l0.2-1.3l0-0.2l0-0.3l0-0.3l0-0.2l0.2-1.3c0.1-0.7,0.8-1.3,1.5-1.3h0.1h1.9h1.3L617.4,83.2z"/>
	<path fill="#333333" d="M631,79.2h-1.3h-3.3h-0.1c-0.5,0-0.9,0.1-1.4,0.2c-1.2,0.4-2.2,1.3-2.8,2.4c-0.2,0.4-0.4,0.9-0.4,1.3
		l-0.2,1.3l-0.1,0.6l-0.1,0.6l-0.2,1.3c-0.1,0.5,0,0.9,0,1.3c0.2,1.1,1,2,2.1,2.4c0.4,0.1,0.8,0.2,1.3,0.2h0.1h3.3
		c0.5,0,0.9-0.1,1.4-0.2c1.2-0.4,2.2-1.3,2.8-2.4c0.2-0.4,0.4-0.9,0.4-1.3l0.2-1.3l0.1-0.6l0.1-0.6l0.2-1.3l0.2-1.3l0.4-2.7l0.5-3.3
		h-2.7L631,79.2z M630.5,83.2l-0.2,1.3l0,0.2l0,0.3l0,0.3l0,0.2l-0.2,1.3c-0.1,0.7-0.8,1.3-1.5,1.3h-1.9h-0.1
		c-0.7,0-1.2-0.6-1.1-1.3l0.2-1.3l0-0.2l0-0.3l0-0.3l0-0.2l0.2-1.3c0.1-0.7,0.8-1.3,1.5-1.3h0.1h1.9h1.3L630.5,83.2z"/>
	<path fill="#333333" d="M664.8,81.9c-0.2-1.1-1-2-2.1-2.4c-0.4-0.1-0.8-0.2-1.3-0.2h-0.1h-3.2h-0.1h-4l-0.4,2.7l-0.2,1.3l-0.2,1.3
		l-0.1,0.6l-0.1,0.6L653,87l-0.6,4h4h0.1l0.4-2.7l0.2-1.3l0.2-1.3l0-0.2l0-0.3l0-0.3l0-0.2l0.2-1.3l0.2-1.3h1.3h0.1h0.3h0.1h1.3h0.1
		c0.7,0,1.2,0.6,1.1,1.3l-0.2,1.3l0,0.2l0,0.3l0,0.3l0,0.2l-0.2,1.3l-0.2,1.3l-0.3,2.4l0,0.2h2.7l0.6-4l0.2-1.3l0.1-0.6l0.1-0.6
		l0.2-1.3C665,82.7,664.9,82.3,664.8,81.9z"/>
	<g>
		<path fill="#333333" d="M644,79.2L643,87l-0.2,1.3h-1.3h-0.7h-0.7h-0.6h-0.1c-0.7,0-1.2-0.6-1.1-1.3l1.1-7.8h-4.1l-1.1,7.8
			c-0.1,0.5,0,0.9,0,1.3c0.2,1.1,1,2,2.1,2.4c0.4,0.1,0.8,0.2,1.3,0.2h0.1h2h0.7h0.7h1.3l-0.1,0.5c-0.1,0.7-0.8,1.3-1.5,1.3h-1.7
			l-0.4,2.7h1.7c0.5,0,0.9-0.1,1.4-0.2c1.2-0.4,2.2-1.3,2.8-2.4c0.2-0.4,0.4-0.9,0.4-1.3L645,91l0.1-0.8l0.3-1.9l0.2-1.3l1.1-7.8
			H644z"/>
	</g>
	<path fill="#333333" d="M594.5,80.2l0.1-0.6c0.1-0.5,0-0.9,0-1.3c-0.2-1.1-1-2-2.1-2.4c-0.4-0.1-0.8-0.2-1.3-0.2h-3.3h-0.1
		c-0.5,0-0.9,0.1-1.4,0.2c-1.2,0.4-2.2,1.3-2.8,2.4c-0.2,0.4-0.4,0.9-0.4,1.3l-0.1,0.6l-0.7,5.3l-0.2,1.4c-0.1,0.5,0,0.9,0,1.3
		c0.2,1.1,1,2,2.1,2.4c0.4,0.1,0.8,0.2,1.3,0.2h0.1h3.3c0.5,0,0.9-0.1,1.4-0.2c1.2-0.4,2.2-1.3,2.8-2.4c0.2-0.4,0.4-0.9,0.4-1.3
		l0.2-1.4c0.1-0.5,0-0.9,0-1.3c-0.1-0.5-0.3-0.9-0.6-1.3c0.4-0.4,0.7-0.8,1-1.3C594.3,81.1,594.4,80.6,594.5,80.2z M590.9,86.9
		c-0.1,0.7-0.8,1.3-1.5,1.3h-1.9h-0.1c-0.7,0-1.2-0.6-1.1-1.3l0.2-1.4l0.2-1.3h1.3h0.1h1.9c0.7,0,1.2,0.6,1.1,1.3L590.9,86.9z
		 M591.8,80.2c-0.1,0.7-0.8,1.3-1.5,1.3h-1.9h-0.1H587l0.2-1.3l0.1-0.6c0.1-0.7,0.8-1.3,1.5-1.3h0.1h1.9c0.7,0,1.2,0.6,1.1,1.3
		L591.8,80.2z"/>
</g>
</svg>
