<?xml version="1.0" encoding="utf-8"?>
<!-- Generator: Adobe Illustrator 18.1.1, SVG Export Plug-In . SVG Version: 6.00 Build 0)  -->
<svg version="1.1" id="レイヤー_1" xmlns="http://www.w3.org/2000/svg" xmlns:xlink="http://www.w3.org/1999/xlink" x="0px"
	 y="0px" viewBox="1040.8 -2 235.2 111" enable-background="new 1040.8 -2 235.2 111" xml:space="preserve">
<g>
	<path fill="#333333" d="M1098.2,44.2l-0.7,5.8l-0.4,3.2l-0.4,3.2l-0.1,0.5l-0.1,0.7l-0.1,0.7l-0.1,0.5l-0.4,3.2
		c-0.2,1.7-1.8,3.2-3.6,3.2h-0.2h-3.1h-0.2h-0.7h-0.2c-1.7,0-3-1.5-2.7-3.2l0.4-3.2l0.1-0.5l0.1-0.7l0.1-0.7l0.1-0.5l0.4-3.2
		l0.4-3.2l0.9-6.3h-0.2h-9.5l-0.9,6.3l-0.5,3.2l-0.4,3.2l-0.2,1.4l-0.2,1.4l-0.4,3.2c-0.1,1.2-0.1,2.1,0.1,3.2
		c0.5,2.7,2.4,4.9,5,5.8c0.9,0.3,1.9,0.5,3.1,0.5h0.2h7.6h0.2c1.2,0,2.1-0.2,3.3-0.5c2.9-0.9,5.2-3.1,6.6-5.8c0.4-1.1,0.7-2,1.1-3.2
		l0.4-3.2l0.2-1.4l0.2-1.4l0.4-3.2l1.4-9.5h-6.3L1098.2,44.2z"/>
	<g>
		<g>
			<path fill="#333333" d="M1202.4,39.7c-0.3,2.1,1.6,4,4.3,4s5.1-1.8,5.5-4c0.3-2.1-1.6-4-4.3-4
				C1205.2,35.8,1202.8,37.4,1202.4,39.7z"/>
		</g>
		<path fill="#333333" d="M1207.1,49.9h-2.4c-2,0-4,1.7-4.2,3.7l-2,14.2l-0.5,3.7h3.7h2.4h3.7l0.5-3.7l2-14.3
			C1210.5,51.5,1209.1,49.9,1207.1,49.9z"/>
	</g>
	<path fill="#333333" d="M1272.3,49.9c-0.5-2.7-2.4-4.9-5-5.8c-0.9-0.3-1.9-0.5-3.1-0.5h-7.8h-0.2c-1.2,0-2.1,0.2-3.3,0.5
		c-2.9,0.9-5.2,3.1-6.6,5.8c-0.4,1.1-0.7,2-1.1,3.2l-0.4,3.2l-0.2,1.4l-0.2,1.4l-0.4,3.2c-0.1,1.2-0.1,2.1,0.1,3.2
		c0.5,2.7,2.4,4.9,5,5.8c0.9,0.3,1.9,0.5,3.1,0.5h0.2h4.8h1.6h1.6h3.2l-0.2,1.3c-0.2,1.7-1.8,3.2-3.6,3.2h-4.1l-0.9,6.3h4.1
		c1.2,0,2.1-0.2,3.3-0.5c2.9-0.9,5.2-3.1,6.6-5.8c0.4-1.1,0.7-2,1.1-3.2l0.2-1.3l0.2-1.9l0.6-4.4l0.4-3.2l0.4-3.2l0.2-1.4l0.1-1.1
		v-0.3l0.4-3.2C1272.8,52,1272.7,50.9,1272.3,49.9z M1265.7,56.4v0.3v0.2l-0.1,0.7l-0.1,0.7l-0.1,0.5l-0.4,3.2l-0.4,3.2h-3.2h-1.6
		h-1.6h-1.4h-0.2c-1.7,0-3-1.5-2.7-3.2l0.4-3.2l0.1-0.5l0.1-0.7l0.1-0.7l0.1-0.5l0.4-3.2c0.2-1.7,1.8-3.2,3.6-3.2h0.2h4.4
		c1.7,0,3,1.5,2.7,3.2L1265.7,56.4z"/>
	<path fill="#333333" d="M1129.5,43.6h-3.2h-7.8h-0.2c-1.2,0-2.1,0.2-3.3,0.5c-2.9,0.9-5.2,3.1-6.6,5.8c-0.4,1.1-0.7,2-1.1,3.2
		l-0.4,3.2l-0.2,1.4l-0.2,1.4l-0.4,3.2c-0.1,1.2-0.1,2.1,0.1,3.2c0.5,2.7,2.4,4.9,5,5.8c0.9,0.3,2,0.5,3.1,0.5h0.2h7.8
		c1.2,0,2.1-0.2,3.3-0.5c2.9-0.9,5.2-3.1,6.6-5.8c0.4-1.1,0.7-2,1.1-3.2l0.4-3.2l0.2-1.4l0.2-1.4l0.4-3.2l0.4-3.2l0.9-6.3l1.2-7.8
		h-6.3L1129.5,43.6z M1128.1,53.1l-0.4,3.2l-0.1,0.5l-0.1,0.7l-0.1,0.7l-0.1,0.5l-0.4,3.2c-0.2,1.7-1.8,3.2-3.6,3.2h-4.4h-0.2
		c-1.7,0-3-1.5-2.7-3.2l0.4-3.2l0.1-0.5l0.1-0.7l0.1-0.7l0.1-0.5l0.4-3.2c0.2-1.7,1.8-3.2,3.6-3.2h0.2h4.4h3.2L1128.1,53.1z"/>
	<path fill="#333333" d="M1160.6,43.6h-3.2h-7.8h-0.2c-1.2,0-2.1,0.2-3.3,0.5c-2.9,0.9-5.2,3.1-6.6,5.8c-0.4,1.1-0.7,2-1.1,3.2
		l-0.4,3.2l-0.2,1.4l-0.2,1.4l-0.4,3.2c-0.1,1.2-0.1,2.1,0.1,3.2c0.5,2.7,2.4,4.9,5,5.8c0.9,0.3,1.9,0.5,3.1,0.5h0.2h7.8
		c1.2,0,2.1-0.2,3.3-0.5c2.9-0.9,5.2-3.1,6.6-5.8c0.4-1.1,0.7-2,1.1-3.2l0.4-3.2l0.2-1.4l0.2-1.4l0.4-3.2l0.4-3.2l0.9-6.3l1.2-7.8
		h-6.3L1160.6,43.6z M1159.2,53.1l-0.4,3.2l-0.1,0.5l-0.1,0.7l-0.1,0.7l-0.1,0.5l-0.4,3.2c-0.2,1.7-1.8,3.2-3.6,3.2h-4.4h-0.2
		c-1.7,0-3-1.5-2.7-3.2l0.4-3.2l0.1-0.5l0.1-0.7l0.1-0.7l0.1-0.5l0.4-3.2c0.2-1.7,1.8-3.2,3.6-3.2h0.2h4.4h3.2L1159.2,53.1z"/>
	<path fill="#333333" d="M1241.3,49.9c-0.5-2.7-2.4-4.9-5-5.8c-0.9-0.3-1.9-0.5-3.1-0.5h-0.2h-7.6h-0.2h-9.5l-0.9,6.3l-0.4,3.2
		l-0.4,3.2l-0.2,1.4l-0.2,1.4l-0.4,3.2l-1.4,9.5h9.5h0.2l0.9-6.3l0.4-3.2l0.4-3.2l0.1-0.5l0.1-0.7l0.1-0.7l0.1-0.5l0.4-3.2l0.4-3.2
		h3.2h0.2h0.7h0.2h3.2h0.2c1.7,0,3,1.5,2.7,3.2l-0.4,3.2l-0.1,0.5l-0.1,0.7l-0.1,0.7l-0.1,0.5l-0.4,3.2l-0.4,3.2l-0.7,5.8l-0.1,0.5
		h6.3l1.4-9.5l0.4-3.2l0.2-1.4l0.2-1.4l0.4-3.2C1241.7,52,1241.5,50.9,1241.3,49.9z"/>
	<g>
		<path fill="#333333" d="M1191.7,43.6l-2.6,18.5l-0.4,3.2h-3.2h-1.6h-1.6h-1.4h-0.2c-1.7,0-3-1.5-2.7-3.2l2.6-18.5h-9.7l-2.6,18.5
			c-0.1,1.2-0.1,2.1,0.1,3.2c0.5,2.7,2.4,4.9,5,5.8c0.9,0.3,1.9,0.5,3.1,0.5h0.2h4.8h1.6h1.6h3.2l-0.2,1.3c-0.2,1.7-1.8,3.2-3.6,3.2
			h-4.1l-0.9,6.3h4.1c1.2,0,2.1-0.2,3.3-0.5c2.9-0.9,5.2-3.1,6.6-5.8c0.4-1.1,0.9-2,1.1-3.2l0.2-1.3l0.2-1.9l0.6-4.4l0.4-3.2
			l2.6-18.5C1198,43.6,1191.7,43.6,1191.7,43.6z"/>
	</g>
	<path fill="#333333" d="M1073.2,46l0.2-1.5c0.1-1.2,0.1-2.1-0.1-3.2c-0.5-2.7-2.4-4.9-5-5.8c-0.9-0.3-1.9-0.5-3.1-0.5h-7.8h-0.2
		c-1.2,0-2.1,0.2-3.3,0.5c-2.9,0.9-5.2,3.1-6.6,5.8c-0.4,1.1-0.7,2-1.1,3.2l-0.2,1.5l-1.8,12.7l-0.4,3.4c-0.1,1.2-0.1,2.1,0.1,3.2
		c0.5,2.7,2.4,4.9,5,5.8c0.9,0.3,2,0.5,3.1,0.5h0.2h7.8c1.2,0,2.1-0.2,3.3-0.5c2.9-0.9,5.2-3.1,6.6-5.8c0.4-1.1,0.7-2,1.1-3.2
		l0.4-3.4c0.1-1.2,0.1-2.1-0.1-3.2c-0.2-1.2-0.7-2.2-1.5-3.2c0.9-0.9,1.8-2,2.4-3.2C1072.7,48.1,1073,47.1,1073.2,46z M1064.6,62.1
		c-0.2,1.7-1.8,3.2-3.6,3.2h-4.4h-0.2c-1.7,0-3-1.5-2.7-3.2l0.4-3.4l0.4-3.2h3.2h0.2h4.4c1.7,0,3,1.5,2.7,3.2L1064.6,62.1z
		 M1066.9,46c-0.2,1.7-1.8,3.2-3.6,3.2h-4.4h-0.2h-3.2l0.4-3.2l0.2-1.5c0.2-1.7,1.8-3.2,3.6-3.2h0.2h4.4c1.7,0,3,1.5,2.7,3.2
		L1066.9,46z"/>
</g>
</svg>
