<?xml version="1.0" encoding="utf-8"?>
<!-- Generator: Adobe Illustrator 18.1.1, SVG Export Plug-In . SVG Version: 6.00 Build 0)  -->
<svg version="1.1" id="レイヤー_1" xmlns="http://www.w3.org/2000/svg" xmlns:xlink="http://www.w3.org/1999/xlink" x="0px"
	 y="0px" viewBox="910 -2 110 111" enable-background="new 910 -2 110 111" xml:space="preserve">
<path fill="#73CAF2" d="M956.9,40.2h6.6c0.4-0.7,1.1-1.6,1.7-2.1c1.9-1.9,4.4-3,7.2-3c2.8,0,5.2,1.1,7.2,3c4,4,4,10.5,0,14.4
	c-0.6,0.6-1.4,1.3-2.1,1.7v6.5c0,3,2.2,3.5,3.5,0.9l22.2-43.6c1.7-3.2-0.5-5.2-3.6-3.6L956,36.6C953.4,38,953.9,40.2,956.9,40.2z"/>
<path fill="#E46D65" d="M976.6,40.8c-2.2-2.2-6.1-2.2-8.4,0c-2.2,2.2-2.2,6.1,0,8.4c2.2,2.2,6.1,2.2,8.4,0
	C979,47.1,979,43.3,976.6,40.8z"/>
<path fill="#E46D65" d="M971.5,66.4h-6.6c-0.4,0.7-1.1,1.6-1.7,2.1c-1.9,1.9-4.4,3-7.2,3s-5.2-1.1-7.2-3c-4-4-4-10.5,0-14.4
	c0.6-0.6,1.4-1.3,2.1-1.7v-6.6c0-3-2.2-3.5-3.5-0.9l-22.2,43.7c-1.7,3.2,0.5,5.2,3.6,3.6l43.5-22.4C975,68.7,974.4,66.4,971.5,66.4z
	"/>
<path fill="#73CAF2" d="M951.8,65.7c2.2,2.2,6.1,2.2,8.4,0c2.4-2.2,2.2-6.1,0-8.4c-2.2-2.4-6.1-2.2-8.4,0
	C949.6,59.6,949.6,63.3,951.8,65.7z"/>
<path fill="#333333" d="M919,57c0.5,7.4,3.1,14.5,7.1,20.7l5-9.6c-1.1-2.4-1.9-4.9-2.4-7.5c-0.4-2.4-0.7-4.9-0.7-7.3
	c0-2.4,0.2-4.9,0.6-7.3c0.9-4.5,2.7-8.9,5.3-12.7c2.7-4.1,6.1-7.6,10.4-10.4c3.9-2.6,8.1-4.4,12.7-5.3c2.4-0.4,4.8-0.6,7.3-0.6
	c2.4,0,4.9,0.2,7.3,0.7c2.6,0.5,5.1,1.4,7.5,2.4l9.6-5c-6.1-4.1-13.3-6.5-20.6-7.2c-0.2,0-0.3-0.1-0.4-0.3l-0.9-3
	c-0.6-2-4.1-2-4.7,0l-1.1,3c-0.1,0.2-0.2,0.3-0.4,0.3c-9.4,0.7-18.3,4.4-25.6,10.6c-0.1,0.1-0.3,0.1-0.5,0.1l-2.7-1.4
	c-1.9-1.1-4.3,1.4-3.3,3.3l1.4,2.7c0.1,0.2,0.1,0.3-0.1,0.5c-6.1,7.3-9.8,16.1-10.6,25.6c0,0.2-0.1,0.3-0.3,0.4l-3,0.9
	c-2,0.6-2,4.1,0,4.7l3,1.1C918.9,56.7,919,56.8,919,57z"/>
<path fill="#333333" d="M1012.7,51l-3-0.9c-0.2-0.1-0.3-0.2-0.3-0.4c-0.5-7.4-3.1-14.5-7.1-20.7l-5,9.6c1.1,2.4,1.9,4.9,2.4,7.5
	c0.4,2.4,0.7,4.9,0.7,7.3c0,2.4-0.2,4.9-0.6,7.3c-0.9,4.5-2.7,8.9-5.3,12.7c-2.7,4.1-6.1,7.6-10.4,10.4c-3.9,2.6-8.1,4.4-12.7,5.3
	c-2.4,0.4-4.8,0.6-7.3,0.6c-2.4,0-4.9-0.2-7.3-0.7c-2.6-0.5-5.1-1.4-7.5-2.4l-9.6,5c6.2,4,13.4,6.5,20.7,7.1c0.2,0,0.3,0.1,0.4,0.3
	l0.9,3c0.6,2,4.1,2,4.7,0l0.9-3c0.1-0.2,0.2-0.3,0.4-0.3c9.4-0.7,18.3-4.4,25.6-10.6c0.1-0.1,0.3-0.1,0.5-0.1l2.7,1.4
	c1.9,1.1,4.3-1.4,3.3-3.3l-1.4-2.7c-0.1-0.2-0.1-0.3,0.1-0.5c6.1-7.3,9.8-16.1,10.6-25.6c0-0.2,0.1-0.3,0.3-0.4l3-0.9
	C1014.7,55,1014.7,51.5,1012.7,51z"/>
</svg>
