<?xml version="1.0" encoding="utf-8"?>
<!-- Generator: Adobe Illustrator 18.1.1, SVG Export Plug-In . SVG Version: 6.00 Build 0)  -->
<svg version="1.1" id="レイヤー_5" xmlns="http://www.w3.org/2000/svg" xmlns:xlink="http://www.w3.org/1999/xlink" x="0px"
	 y="0px" viewBox="0 0 63.8 63.2" enable-background="new 0 0 63.8 63.2" xml:space="preserve">
<g>
	<path fill="#E46D65" d="M36,34.1c-0.2,0.3-0.8,1.1-1.8,1.2c0,0-0.1,0-0.1,0c-0.8,0-1.4-0.6-1.6-0.8c-3.3-3.2-7.1-5.8-11.1-7.8v13
		h22v-13C40.3,27.8,37.9,31.1,36,34.1z"/>
	<path fill="#E46D65" d="M40.4,24.7H23.9c3.6,2,7,4.4,10,7.2C35.6,29.4,37.6,26.7,40.4,24.7z"/>
	<path fill="#E46D65" d="M32.1,3C16,3,3,16,3,32.1c0,16.1,13,29.1,29.1,29.1c16.1,0,29.1-13,29.1-29.1C61.2,16,48.2,3,32.1,3z
		 M46.3,41.3c0,0.7-1,1.3-1.7,1.3H19.8c-0.7,0-1.5-0.6-1.5-1.3V25.2c0-0.3-0.3-0.8-0.1-1.2c0-0.1,0.1-0.1,0.1-0.1v0
		c0-0.7,0.7-1.1,1.5-1.1h24.8c0.7,0,1.7,0.4,1.7,1.1V41.3z"/>
</g>
</svg>
