<?xml version="1.0" encoding="utf-8"?>
<!-- Generator: Adobe Illustrator 18.1.1, SVG Export Plug-In . SVG Version: 6.00 Build 0)  -->
<svg version="1.1" id="レイヤー_1" xmlns="http://www.w3.org/2000/svg" xmlns:xlink="http://www.w3.org/1999/xlink" x="0px"
	 y="0px" viewBox="0 0 280 280" enable-background="new 0 0 280 280" xml:space="preserve">
<path d="M4.7,140.8c0,74.7,60.7,135.3,135.3,135.3s135.3-60.7,135.3-135.3S214.7,5.4,140,5.4S4.7,66.1,4.7,140.8z M140,65.3
	c10.1,17.9,30.3,33.4,55.2,41.2c2.3,0.8,3.9,3.1,3.9,5.4c0,0.8,0,0.8,0,1.6c-0.8,3.1-7.8,4.7-10.1,3.9
	c-20.2-6.2-37.3-17.1-52.9-29.6V224c0,3.1-0.8,5.4-3.9,5.4s-3.9-2.3-3.9-5.4V80.9l-41.2,51.3c-2.3,2.3-4.7,2.3-7,0.8
	c-2.3-1.6-2.3-5.4,0-7.8l51.3-61.4c1.6-1.6,3.1-2.3,4.7-2.3S139.2,63.8,140,65.3z"/>
</svg>
